<svg xmlns="http://www.w3.org/2000/svg" xmlns:xlink="http://www.w3.org/1999/xlink" width="500" zoomAndPan="magnify" viewBox="0 0 375 374.999991" height="500" preserveAspectRatio="xMidYMid meet" version="1.0"><defs><g/><clipPath id="id1"><path d="M 173.28125 92.363281 L 311.28125 92.363281 L 311.28125 304.613281 L 173.28125 304.613281 Z M 173.28125 92.363281 " clip-rule="nonzero"/></clipPath><clipPath id="id2"><path d="M 134.9375 238.332031 L 307.4375 238.332031 L 307.4375 318.386719 L 134.9375 318.386719 Z M 134.9375 238.332031 " clip-rule="nonzero"/></clipPath></defs><g clip-path="url(#id1)"><path fill="#ff1616" d="M 311.28125 161.65625 C 311.28125 123.476562 280.390625 92.53125 242.289062 92.53125 C 204.183594 92.53125 173.28125 123.476562 173.28125 161.65625 C 173.28125 162.328125 173.371094 163.003906 173.378906 163.679688 C 173.378906 163.699219 173.332031 163.699219 173.332031 163.699219 C 173.332031 165.238281 173.445312 166.847656 173.625 168.511719 C 173.65625 168.824219 173.707031 169.109375 173.722656 169.417969 C 173.902344 170.832031 174.125 172.296875 174.402344 173.789062 C 174.582031 174.839844 174.769531 175.878906 175.015625 176.898438 C 185.550781 223.742188 242.269531 304.453125 242.269531 304.453125 C 242.269531 304.453125 293.199219 230.5625 307.539062 183.964844 C 308.671875 180.589844 309.5625 177.113281 310.183594 173.539062 C 310.855469 169.992188 311.277344 166.683594 311.277344 163.699219 C 311.277344 163.472656 311.195312 163.277344 311.195312 163.058594 C 311.203125 162.585938 311.28125 162.132812 311.28125 161.65625 Z M 242.289062 197.722656 C 222.097656 197.722656 205.742188 181.34375 205.742188 161.140625 C 205.742188 140.933594 222.089844 124.550781 242.289062 124.550781 C 262.449219 124.550781 278.816406 140.929688 278.816406 161.140625 C 278.816406 181.339844 262.449219 197.722656 242.289062 197.722656 Z M 242.289062 197.722656 " fill-opacity="1" fill-rule="nonzero"/></g><path fill="#f4f6fc" d="M 239.75 264.378906 C 240.503906 265.246094 241.726562 265.753906 243.019531 265.730469 L 245.300781 265.6875 C 247.222656 265.652344 249.0625 265.042969 250.472656 263.964844 C 251.667969 263.058594 252.125 261.667969 251.644531 260.390625 C 251.378906 259.671875 250.433594 259.292969 249.582031 259.558594 L 240.472656 262.410156 C 239.507812 262.710938 239.148438 263.683594 239.75 264.378906 " fill-opacity="1" fill-rule="nonzero"/><path fill="#f4f6fc" d="M 246.472656 252.988281 C 246.472656 252.988281 246.472656 252.984375 246.464844 252.972656 C 246.453125 252.960938 246.4375 252.953125 246.425781 252.941406 C 246.410156 252.90625 246.414062 252.871094 246.390625 252.839844 L 245.285156 251.410156 C 242.910156 248.332031 238.8125 246.453125 234.386719 246.40625 L 220.753906 246.234375 L 220.753906 253.738281 L 242.75 253.707031 C 240.300781 254.65625 236.820312 256.316406 234.402344 258.804688 L 231.324219 261.34375 C 230.285156 262.191406 228.75 262.691406 227.101562 262.703125 L 220.753906 262.769531 L 220.753906 264 L 227.121094 263.933594 C 229.15625 263.914062 231.0625 263.292969 232.378906 262.214844 L 235.511719 259.625 C 239.296875 255.734375 246.03125 253.949219 246.089844 253.929688 C 246.484375 253.828125 246.703125 253.476562 246.578125 253.152344 C 246.558594 253.09375 246.527344 253.042969 246.472656 252.988281 " fill-opacity="1" fill-rule="nonzero"/><path fill="#f4f6fc" d="M 235.867188 267.613281 L 235.867188 267.519531 C 235.867188 266.703125 235.195312 266.039062 234.363281 266.039062 L 220.753906 266.039062 L 220.753906 269.09375 L 234.363281 269.09375 C 235.195312 269.09375 235.867188 268.429688 235.867188 267.613281 " fill-opacity="1" fill-rule="nonzero"/><g clip-path="url(#id2)"><path fill="#f4f6fc" d="M 284.371094 307.4375 C 277.753906 307.4375 275.070312 302.492188 274.199219 296.601562 C 274.089844 295.882812 273.472656 295.351562 272.746094 295.351562 L 266.667969 295.351562 C 265.898438 295.351562 265.25 294.753906 265.199219 293.984375 C 264.703125 286.507812 262.609375 282.296875 258.777344 279.675781 C 257.882812 279.0625 257.886719 277.773438 258.796875 277.1875 C 260.457031 276.125 262.191406 274.535156 263.59375 272.273438 C 264.140625 271.386719 265.402344 271.308594 266.015625 272.148438 C 268.933594 276.117188 273.714844 279.28125 280.804688 282.652344 C 290.597656 287.328125 293.730469 291.027344 293.730469 297.394531 C 293.730469 303.160156 291.199219 307.4375 284.371094 307.4375 Z M 205.011719 285.507812 L 195.597656 285.507812 C 194.667969 285.507812 193.972656 284.652344 194.15625 283.742188 C 196.855469 270.257812 199.148438 259.277344 200.050781 252.441406 L 200.382812 252.441406 C 201.550781 259.542969 203.726562 269.816406 206.457031 283.746094 C 206.632812 284.65625 205.9375 285.507812 205.011719 285.507812 Z M 306.347656 286.894531 C 306.304688 286.765625 306.304688 286.632812 306.253906 286.507812 C 303.621094 279.597656 297.628906 275.09375 287.714844 270.507812 C 278.632812 266.289062 276.15625 263.679688 276.15625 258.101562 C 276.15625 252.84375 278.609375 249.28125 284.097656 249.28125 C 290.460938 249.28125 291.992188 254.644531 292.554688 258.949219 C 292.648438 259.679688 293.273438 260.226562 294.011719 260.226562 L 304.742188 260.226562 C 305.601562 260.226562 306.273438 259.5 306.21875 258.644531 C 305.578125 248.949219 300.859375 238.347656 284.339844 238.347656 C 275.425781 238.347656 268.96875 241.796875 265.445312 247.503906 C 264.890625 248.402344 263.597656 248.445312 263 247.574219 C 259.378906 242.300781 253.058594 239.566406 244.46875 239.566406 L 222.226562 239.566406 C 221.414062 239.566406 220.753906 240.226562 220.753906 241.039062 L 220.753906 243.730469 L 236.753906 244.011719 C 240.996094 244.082031 244.933594 245.886719 247.277344 248.851562 L 250.945312 253.980469 C 251.121094 254.222656 251.476562 254.226562 251.652344 253.988281 L 252.1875 253.269531 C 252.90625 252.308594 254.152344 251.710938 255.507812 251.6875 L 258.203125 251.632812 C 259.332031 251.613281 260.273438 252.351562 260.320312 253.296875 C 260.359375 254.078125 259.777344 254.785156 258.890625 255.027344 L 254.566406 256.210938 C 254.558594 256.285156 254.566406 256.226562 254.558594 256.304688 C 256.566406 257.25 257.832031 259.011719 257.894531 260.957031 L 258.148438 268.277344 C 258.210938 270.347656 256.25 272.0625 253.976562 271.925781 L 251.199219 271.96875 L 251.199219 276.015625 C 251.199219 277.023438 250.382812 277.84375 249.375 277.84375 L 242.941406 277.84375 C 241.933594 277.84375 241.117188 277.023438 241.117188 276.015625 L 241.117188 272.105469 L 239.210938 272.132812 L 220.753906 272.394531 L 220.753906 274.710938 C 220.753906 276.460938 218.246094 276.75 217.847656 275.046875 L 209.8125 240.703125 C 209.65625 240.039062 209.0625 239.566406 208.375 239.566406 L 192.71875 239.566406 C 192.03125 239.566406 191.4375 240.039062 191.28125 240.707031 L 179.097656 293.351562 C 178.941406 294.019531 178.347656 294.496094 177.664062 294.496094 L 170.296875 294.496094 C 169.554688 294.496094 168.925781 295.046875 168.835938 295.789062 C 168.378906 299.542969 167 306.820312 159.714844 306.820312 C 150.726562 306.820312 149.273438 293.105469 149.273438 278.492188 C 149.273438 260.761719 151.394531 250.097656 160.097656 250.097656 C 167.527344 250.097656 168.636719 257.214844 168.941406 260.808594 C 169.007812 261.570312 169.644531 262.15625 170.410156 262.15625 L 181.1875 262.15625 C 182.050781 262.15625 182.726562 261.421875 182.660156 260.566406 C 182.09375 253.390625 179.296875 238.335938 160.3125 238.335938 C 142.292969 238.335938 134.9375 253.113281 134.9375 278.207031 C 134.9375 299.027344 137.46875 318.386719 159.484375 318.386719 C 162.75 318.386719 169.390625 318.074219 175.386719 317.753906 C 182.507812 317.371094 188.460938 312.203125 189.839844 305.203125 L 191.113281 298.738281 C 191.25 298.046875 191.855469 297.550781 192.558594 297.550781 L 208.058594 297.550781 C 208.761719 297.550781 209.367188 298.046875 209.503906 298.738281 L 212.890625 315.863281 C 213.027344 316.554688 213.632812 317.050781 214.335938 317.050781 L 233.070312 317.050781 C 233.886719 317.050781 234.542969 316.390625 234.542969 315.578125 L 234.542969 285.484375 C 234.542969 284.671875 235.203125 284.011719 236.015625 284.011719 L 240.488281 284.011719 C 249.242188 284.011719 251.617188 287.511719 251.617188 297.871094 L 251.617188 300.691406 C 251.617188 306.703125 251.785156 312.273438 252.640625 315.914062 C 252.796875 316.582031 253.394531 317.050781 254.078125 317.050781 L 264.660156 317.050781 C 265.554688 317.050781 266.242188 316.261719 266.121094 315.375 C 266.113281 315.34375 266.113281 315.3125 266.105469 315.28125 C 265.929688 313.992188 267.402344 313.121094 268.441406 313.914062 C 272.050781 316.667969 277.078125 318.371094 283.953125 318.371094 C 290.972656 318.371094 296.363281 316.515625 300.230469 313.441406 C 300.339844 313.355469 300.414062 313.246094 300.515625 313.152344 C 302.621094 311.183594 305.695312 308.328125 307.125 299.921875 C 307.871094 295.511719 307.195312 289.605469 306.347656 286.894531 " fill-opacity="1" fill-rule="nonzero"/></g><g fill="#ff1616" fill-opacity="1"><g transform="translate(63.641134, 235.792409)"><g><path d="M 106.859375 -37.550781 C 106.644531 -37.550781 106.644531 -37.550781 106.429688 -37.550781 C 106.429688 -42.699219 106.429688 -48.066406 106.429688 -53.429688 C 106.429688 -58.148438 106.429688 -62.871094 106.429688 -67.375 C 106.429688 -69.738281 105.570312 -71.882812 103.855469 -73.382812 C 101.28125 -75.316406 98.488281 -76.816406 95.269531 -76.816406 C 91.625 -76.601562 88.191406 -76.390625 84.757812 -76.390625 C 79.179688 -76.390625 73.8125 -76.390625 68.449219 -75.960938 C 67.160156 -75.746094 66.089844 -75.746094 65.015625 -75.53125 C 61.582031 -74.886719 59.652344 -73.171875 59.007812 -69.738281 C 58.792969 -69.09375 58.792969 -68.449219 58.792969 -68.019531 C 58.792969 -62.871094 58.792969 -57.71875 59.007812 -52.570312 C 59.007812 -51.285156 59.652344 -50.425781 60.726562 -50.210938 C 61.796875 -49.996094 62.65625 -49.78125 63.730469 -49.78125 C 66.734375 -49.351562 69.953125 -49.136719 73.171875 -49.136719 C 74.886719 -48.921875 75.960938 -48.066406 76.601562 -46.5625 C 77.03125 -45.703125 77.246094 -44.632812 77.246094 -43.558594 C 77.460938 -42.269531 77.460938 -40.984375 77.460938 -39.695312 C 77.246094 -36.691406 76.816406 -33.6875 74.886719 -31.113281 C 73.382812 -29.398438 71.667969 -27.894531 69.523438 -27.035156 C 63.941406 -25.105469 58.363281 -24.246094 52.355469 -25.964844 C 48.492188 -27.035156 44.847656 -28.753906 42.484375 -32.402344 C 41.628906 -33.902344 40.554688 -35.40625 39.695312 -36.90625 C 38.839844 -38.410156 38.195312 -40.125 37.550781 -41.84375 C 37.335938 -42.269531 37.335938 -42.914062 37.335938 -43.34375 C 37.121094 -44.632812 36.90625 -45.917969 36.476562 -46.992188 C 35.621094 -49.78125 35.191406 -52.785156 35.191406 -55.574219 C 34.976562 -62.011719 34.976562 -68.234375 35.835938 -74.671875 C 36.476562 -79.179688 36.476562 -83.898438 36.691406 -88.40625 C 36.691406 -89.261719 36.90625 -89.90625 36.90625 -90.765625 C 37.550781 -93.769531 38.195312 -96.988281 39.050781 -99.992188 C 40.339844 -104.285156 41.414062 -108.789062 43.988281 -112.4375 C 46.5625 -116.515625 49.78125 -120.160156 54.503906 -122.308594 C 58.578125 -124.023438 62.65625 -125.3125 67.160156 -125.097656 C 70.167969 -124.882812 72.957031 -124.023438 75.746094 -122.738281 C 75.960938 -122.523438 76.175781 -122.308594 76.601562 -122.09375 C 78.320312 -120.375 79.179688 -118.445312 79.394531 -115.871094 C 79.605469 -113.9375 80.035156 -111.792969 80.25 -109.863281 C 80.464844 -107.714844 80.894531 -105.570312 82.398438 -103.640625 C 83.683594 -101.921875 85.402344 -100.851562 87.761719 -100.851562 C 91.410156 -101.28125 95.058594 -101.492188 98.703125 -101.921875 C 99.992188 -101.921875 101.066406 -102.136719 102.136719 -102.566406 C 103.425781 -102.996094 104.285156 -104.070312 104.496094 -105.355469 C 104.710938 -106.644531 105.140625 -107.929688 105.140625 -109.21875 C 104.925781 -112.4375 104.925781 -115.871094 104.710938 -119.304688 C 104.285156 -123.59375 103.855469 -127.886719 102.78125 -132.179688 C 101.921875 -136.253906 99.5625 -139.257812 96.988281 -142.476562 C 96.773438 -142.90625 96.34375 -143.121094 95.914062 -143.335938 C 93.554688 -144.625 91.195312 -145.910156 88.835938 -147.199219 C 87.976562 -147.628906 87.332031 -147.84375 86.472656 -148.269531 C 85.828125 -148.269531 85.402344 -148.484375 84.757812 -148.914062 C 83.039062 -150.203125 80.894531 -150.847656 78.75 -151.273438 C 75.960938 -151.917969 73.171875 -152.5625 70.167969 -152.347656 C 68.234375 -152.132812 66.519531 -152.347656 64.800781 -152.347656 C 63.300781 -152.347656 62.011719 -152.347656 60.511719 -152.347656 C 54.929688 -151.917969 49.351562 -150.417969 44.203125 -147.84375 C 40.554688 -145.910156 37.335938 -143.980469 33.6875 -142.046875 C 33.257812 -141.835938 33.042969 -141.40625 32.617188 -141.191406 C 29.183594 -138.1875 25.964844 -134.753906 22.960938 -131.320312 C 22.316406 -130.675781 21.886719 -129.816406 21.671875 -129.175781 C 21.027344 -127.671875 20.382812 -126.171875 19.3125 -124.882812 C 17.808594 -122.953125 16.738281 -120.804688 16.308594 -118.445312 C 14.804688 -112.867188 13.089844 -107.074219 11.800781 -101.28125 C 10.515625 -94.84375 9.65625 -88.191406 9.441406 -81.539062 C 9.226562 -74.671875 8.796875 -67.804688 8.796875 -60.9375 C 8.796875 -56.433594 8.582031 -51.925781 9.226562 -47.421875 C 9.65625 -44.203125 10.085938 -40.984375 10.730469 -37.765625 C 10.941406 -35.621094 11.371094 -33.472656 12.015625 -31.328125 C 12.230469 -30.039062 12.875 -28.753906 13.304688 -27.464844 C 14.160156 -23.816406 15.878906 -20.597656 18.023438 -17.59375 C 19.097656 -16.523438 20.171875 -15.234375 21.027344 -14.160156 C 22.960938 -11.800781 24.675781 -9.226562 26.820312 -7.082031 C 27.894531 -5.792969 29.183594 -4.507812 30.683594 -3.648438 C 32.828125 -2.359375 35.191406 -1.289062 37.335938 -0.214844 C 38.195312 0.429688 39.265625 0.859375 40.339844 1.074219 C 45.273438 2.144531 50.640625 2.789062 55.789062 3.21875 C 59.652344 3.648438 63.515625 2.574219 67.160156 1.503906 C 69.953125 0.859375 72.742188 -0.214844 75.53125 -0.859375 C 76.601562 -1.289062 77.675781 -1.503906 78.535156 -0.644531 C 79.820312 1.074219 81.539062 1.503906 83.46875 1.289062 C 89.476562 1.289062 95.484375 0.859375 101.28125 0.859375 C 102.78125 0.644531 103.855469 0.214844 104.496094 -1.074219 C 105.570312 -3.21875 106.429688 -5.363281 106.429688 -7.726562 C 106.429688 -17.59375 106.644531 -27.464844 106.859375 -37.550781 Z M 106.859375 -37.550781 "/></g></g></g></svg>